<svg width="228" height="228" viewBox="0 0 228 228" fill="none" xmlns="http://www.w3.org/2000/svg">
<path d="M18.142 0.418915C11.7172 1.47443 5.33828 6.29303 2.35533 12.3966C-1.63723 20.6112 -0.535834 29.4224 5.52185 36.765L7.67875 39.4267L5.7972 42.1343C3.45673 45.4385 1.80463 49.1098 0.932695 52.8729C-0.0769188 57.1867 -0.0769188 201.745 0.932695 205.738C2.99781 213.952 8.73425 221.203 15.9392 224.737C23.1442 228.27 13.8282 227.995 125.528 227.995H225.893L226.857 226.939L227.866 225.884V141.581C227.866 57.8751 227.866 57.2785 226.948 56.3607C226.122 55.5346 225.434 55.4429 220.937 55.4429H215.843L216.118 53.9284C216.302 53.1483 216.531 49.5687 216.715 45.9892C216.898 40.8952 216.806 38.6925 216.164 35.6636C212.906 19.4639 200.836 6.43071 184.682 1.70389C179.543 0.235352 168.987 -0.0399933 163.389 1.19908C158.203 2.34636 152.742 4.64095 148.382 7.5321C143.839 10.5151 137.735 16.8022 135.028 21.2996C132.412 25.7052 129.98 32.3594 129.2 37.178C128.649 40.6658 128.786 50.4866 129.475 53.9284L129.75 55.4429H108.273H86.7957L61.0506 29.7895C36.5445 5.32932 35.2137 4.09024 31.9095 2.52994C30.0279 1.61211 27.1368 0.648376 25.4847 0.373032C22.0887 -0.131775 21.6298 -0.131775 18.142 0.418915ZM28.3758 9.50545C29.4313 10.0103 32.1389 12.3048 34.4335 14.5994L38.5637 18.7296L28.5594 28.734L18.555 38.6925L14.0577 34.1033C10.3863 30.3402 9.42263 29.0552 8.73425 26.9901C7.03627 21.8961 8.04588 16.6645 11.5336 12.8096C15.8015 8.03691 22.5935 6.70605 28.3758 9.50545ZM181.47 8.90886C190.189 11.0658 198.587 17.0316 203.314 24.4661C207.353 30.7991 209.097 36.7191 209.097 44.4289C209.097 53.1483 207.077 59.0683 201.479 66.8239C197.761 72.0097 195.605 75.9105 193.907 80.5455C192.438 84.6299 191.153 90.7793 191.153 93.8082V95.8274H187.482H183.81V84.8134V73.7995H187.161C191.245 73.7995 193.585 72.7898 195.88 70.1281C198.037 67.5582 198.633 65.6767 198.404 61.8677C198.266 59.2518 197.991 58.334 196.844 56.7278C194.595 53.4695 192.117 52.0469 188.4 51.8633C184.591 51.6339 182.709 52.2304 180.139 54.3873C177.477 56.6819 176.468 59.0224 176.468 63.1067V66.4568H172.842H169.217L169.079 62.6019C168.896 59.1601 168.758 58.5176 167.519 56.7737C165.224 53.4695 162.746 52.0469 159.029 51.8633C155.128 51.6339 153.247 52.2304 150.631 54.5709C147.877 56.9573 146.914 59.4354 147.189 63.6574C147.327 66.3191 147.602 67.237 148.749 68.8432C149.484 69.8987 150.998 71.4131 152.099 72.1933C153.843 73.4323 154.486 73.57 157.928 73.7536L161.783 73.8913V84.8593V95.8274H158.111H154.44V93.8082C154.44 90.7793 153.155 84.6299 151.686 80.5455C149.988 75.9105 147.831 72.0097 144.114 66.8698C139.342 60.2156 137.276 55.0298 136.588 48.1002C134.615 28.734 148.199 11.2034 167.519 8.22047C171.098 7.62389 177.661 7.99103 181.47 8.90886ZM47.0537 27.2196L49.5777 29.7436L39.5734 39.748L29.6149 49.7064L26.9991 47.0447L24.3374 44.4289L34.2041 34.5622C39.6193 29.147 44.1625 24.6955 44.3002 24.6955C44.4379 24.6955 45.6769 25.8428 47.0537 27.2196ZM74.5886 54.7545L93.6336 73.7995H90.1458C86.0156 73.7995 85.0978 74.3043 84.7306 76.966L84.4553 78.8475L66.3281 60.7204L48.201 42.5932L51.6428 39.1514C53.5244 37.2698 55.1765 35.7095 55.3142 35.7095C55.4518 35.7095 64.1253 44.2912 74.5886 54.7545ZM51.6428 130.843V178.478L48.8434 176.138C42.694 170.998 36.6363 169.024 28.2382 169.392C20.5284 169.713 14.7919 172.053 9.65209 177.01L7.54107 178.983L7.67875 117.58L7.81642 56.1312L9.0096 52.8729C9.65209 51.129 10.8912 48.605 11.7631 47.2742L13.3234 44.8878L32.4602 64.0246L51.6428 83.2072V130.843ZM60.8211 66.6863C78.4894 84.3545 78.9024 84.8134 77.2962 84.8134C74.4968 84.8134 73.9461 85.5936 73.6708 89.8156L73.4413 93.5328L54.3963 74.4878L35.3513 55.4429L38.7932 52.001C40.6748 50.1194 42.3269 48.5591 42.4645 48.5591C42.6022 48.5591 50.8627 56.7278 60.8211 66.6863ZM160.589 60.445C161.048 60.9498 161.507 62.4184 161.645 63.9787L161.92 66.5945L159.304 66.3191C157.744 66.1815 156.276 65.7225 155.771 65.2636C154.669 64.2999 154.623 61.5464 155.679 60.3991C156.689 59.2518 159.534 59.2977 160.589 60.445ZM189.868 60.3532C191.015 61.3629 190.969 64.2081 189.822 65.2636C189.317 65.7225 187.849 66.1815 186.289 66.3191L183.673 66.5945L183.948 63.9787C184.086 62.4184 184.545 60.9498 185.004 60.445C185.967 59.3436 188.721 59.2977 189.868 60.3532ZM133.835 65.4013C134.615 66.8698 136.634 69.8987 138.24 72.1474C142.003 77.379 144.114 81.7846 145.537 87.4292C146.455 91.1465 146.73 93.5787 147.005 101.426L147.327 110.926L148.703 112.899C150.631 115.607 153.384 117.442 156 117.718C158.019 117.947 158.111 118.039 158.111 119.462C158.111 124.005 162.838 130.2 167.473 131.76C170.364 132.77 175.229 132.77 178.12 131.76C182.755 130.2 187.482 124.005 187.482 119.462C187.482 118.039 187.574 117.947 189.593 117.718C192.209 117.442 194.962 115.607 196.89 112.853L198.266 110.88L198.587 101.656C198.725 96.5617 199.184 90.917 199.551 89.1731C200.653 83.9874 202.901 78.7558 206.068 74.1666C207.674 71.8261 209.969 68.2925 211.162 66.3191L213.319 62.7855H216.898H220.524V141.719V220.652H125.895C68.6227 220.652 29.7067 220.469 27.4121 220.193C9.14728 218.128 1.48339 196.376 14.4248 183.434C27.3203 170.539 49.1188 178.157 51.1839 196.284C51.6428 200.277 52.1017 201.561 53.2949 202.02C54.8093 202.617 56.8745 202.296 57.93 201.286L58.9855 200.322V145.436V90.5958L67.1542 98.6268L75.277 106.658L93.9548 112.257C104.235 115.331 113.367 117.855 114.285 117.855C116.396 117.855 117.727 116.524 117.727 114.413C117.727 113.496 115.203 104.363 112.128 94.0835L106.529 75.4057L100.334 69.0726L94.1384 62.7855H113.229H132.32L133.835 65.4013ZM176.468 84.8134V95.8274H172.796H169.125V84.8134V73.7995H172.796H176.468V84.8134ZM101.435 85.7771L102.766 90.3663L96.4789 96.6075L90.2376 102.895L85.6485 101.564L81.0134 100.279V96.1945V92.1561H85.4649C89.4116 92.1561 90.0081 92.0184 90.9719 91.1465C91.9356 90.2286 92.0274 89.7697 92.0274 85.6395V81.1421H96.0658H100.15L101.435 85.7771ZM106.85 103.721C107.539 106.015 107.998 107.989 107.952 108.08C107.768 108.218 99.7372 105.924 99.4159 105.602C99.1865 105.419 104.923 99.4987 105.336 99.4987C105.519 99.4987 106.162 101.38 106.85 103.721ZM191.015 105.786C190.832 107.53 190.419 108.677 189.776 109.32C188.858 110.237 188.445 110.283 172.796 110.283C157.147 110.283 156.734 110.237 155.817 109.32C155.174 108.677 154.761 107.53 154.578 105.786L154.302 103.17H172.796H191.291L191.015 105.786ZM179.68 118.865C179.68 120.379 178.074 122.766 176.376 123.821C172.475 126.208 166.739 123.821 166.05 119.507L165.775 117.855H172.751C179.634 117.855 179.68 117.855 179.68 118.865Z" fill="#009CD8"/>
<path d="M172.797 18.9133V22.7223L175.734 22.9517C184.591 23.686 193.54 32.6348 194.274 41.4919L194.504 44.429H198.313H202.167V42.2262C202.167 35.3883 197.578 26.4854 191.521 21.5291C187.023 17.9037 179.818 15.0584 175 15.0584H172.797V18.9133Z" fill="#009CD8"/>
<path d="M100.471 125.84C99.783 126.391 99.5536 127.217 99.37 130.246L99.1406 134.009L96.2494 135.156L93.3582 136.304L90.8801 133.963C86.9793 130.246 86.704 130.338 79.086 137.956C71.468 145.574 71.3762 145.849 75.0934 149.75L77.4339 152.228L76.2866 155.119L75.1393 158.01L71.3762 158.24C68.3473 158.423 67.5213 158.653 66.9706 159.341C66.0528 160.672 66.0528 177.835 66.9706 179.166C67.5213 179.855 68.3473 180.084 71.3762 180.268L75.1393 180.497L76.2866 183.388L77.4339 186.279L75.0934 188.758C71.3762 192.658 71.468 192.934 79.086 200.552C86.704 208.17 86.9793 208.262 90.8801 204.544L93.3582 202.204L96.2494 203.351L99.1406 204.498L99.37 208.262C99.5536 211.29 99.783 212.116 100.471 212.667C101.206 213.172 103.363 213.31 110.384 213.31C119.149 213.31 119.425 213.264 120.388 212.254C121.169 211.428 121.398 210.556 121.49 207.848L121.627 204.498L124.519 203.351L127.41 202.204L129.888 204.544C133.789 208.262 134.064 208.17 141.682 200.552C149.3 192.934 149.392 192.658 145.675 188.758L143.334 186.279L144.481 183.388L145.629 180.497L148.979 180.359C151.686 180.268 152.558 180.038 153.384 179.258C154.394 178.294 154.44 178.019 154.44 169.254C154.44 162.232 154.302 160.075 153.797 159.341C153.247 158.653 152.421 158.423 149.392 158.24L145.629 158.01L144.481 155.119L143.334 152.228L145.675 149.75C149.392 145.849 149.3 145.574 141.682 137.956C134.064 130.338 133.789 130.246 129.888 133.963L127.41 136.304L124.519 135.156L121.627 134.009L121.398 130.246C121.214 127.217 120.985 126.391 120.297 125.84C118.966 124.922 101.802 124.922 100.471 125.84ZM114.055 135.661C114.055 139.332 114.744 140.25 118.186 141.214C119.333 141.535 121.949 142.591 123.968 143.6C128.328 145.665 129.154 145.62 132.091 142.728L133.789 141.076L136.175 143.463L138.561 145.849L136.68 147.776C134.064 150.53 133.926 151.54 135.808 155.073C136.634 156.679 137.735 159.249 138.194 160.764C139.433 164.94 140.213 165.582 143.977 165.582H147.097V169.254V172.925H143.977C140.213 172.925 139.433 173.568 138.194 177.744C137.735 179.258 136.818 181.553 136.083 182.838C133.972 186.601 134.064 187.886 136.634 190.639L138.561 192.704L136.175 195.091L133.789 197.431L131.861 195.55C129.108 192.934 128.098 192.796 124.564 194.678C122.958 195.504 120.388 196.605 118.874 197.064C114.698 198.303 114.055 199.083 114.055 202.846V205.967H110.384H106.713V202.846C106.713 199.129 105.978 198.119 102.582 197.248C101.435 196.972 98.8652 195.917 96.846 194.953C92.4863 192.842 91.7061 192.888 88.9068 195.595L86.9793 197.431L84.5929 195.045L82.2066 192.658L83.8587 190.96C86.7499 188.023 86.7957 187.197 84.7306 182.838C83.721 180.818 82.6655 178.203 82.3902 177.055C81.5182 173.659 80.5086 172.925 76.7914 172.925H73.6708V169.254V165.582H76.7914C80.5086 165.582 81.5182 164.848 82.3902 161.452C82.6655 160.305 83.721 157.689 84.7306 155.67C86.7957 151.31 86.7499 150.484 83.8587 147.547L82.2066 145.849L84.5929 143.463L86.9793 141.076L88.6773 142.728C91.6144 145.62 92.4404 145.665 96.8001 143.6C98.8193 142.591 101.435 141.535 102.582 141.26C105.978 140.388 106.713 139.378 106.713 135.661V132.54H110.384H114.055V135.661Z" fill="#009CD8"/>
<path d="M104.143 147.868C97.9019 149.888 93.0833 154.11 90.2839 159.938C88.5859 163.471 88.5859 163.563 88.5859 169.3V175.082L90.5134 178.983C92.9456 183.801 96.2039 187.014 101.206 189.4C104.602 191.006 104.74 191.052 110.384 191.052C116.075 191.052 116.167 191.052 119.7 189.354C124.519 187.06 128.19 183.388 130.485 178.57C132.183 175.036 132.183 174.944 132.183 169.254C132.183 163.563 132.183 163.471 130.485 159.938C128.144 155.119 124.519 151.448 119.7 149.153C116.304 147.547 115.846 147.455 111.073 147.364C107.86 147.272 105.336 147.455 104.143 147.868ZM116.121 156.175C119.425 157.597 121.582 159.708 123.234 162.921C124.427 165.307 124.611 166.225 124.611 169.208C124.611 175.082 121.903 179.488 116.717 182.103C114.331 183.297 113.413 183.48 110.384 183.48C107.356 183.48 106.438 183.297 104.051 182.103C98.8656 179.488 96.158 175.082 96.158 169.208C96.158 166.225 96.3416 165.307 97.5348 162.921C101.068 155.853 109.008 153.008 116.121 156.175Z" fill="#009CD8"/>
<path d="M169.125 144.473C169.125 151.632 170.961 156.037 175.779 160.489C179.13 163.564 182.709 165.032 188.95 165.766C195.1 166.546 197.67 167.602 200.744 170.677C201.8 171.778 203.268 173.706 203.911 174.991C205.012 177.056 205.15 177.79 205.15 182.104C205.15 186.417 205.012 187.152 203.911 189.217C201.341 194.173 196.798 197.34 191.291 198.166C189.593 198.395 179.772 198.625 169.492 198.625H150.769V202.296V205.967H172.016C190.143 205.967 193.631 205.876 195.788 205.233C203.911 202.847 210.06 196.697 212.447 188.574C213.41 185.316 213.41 178.891 212.447 175.633C210.198 168.015 204.921 162.324 197.67 159.617C196.247 159.066 193.218 158.424 190.924 158.194C185.738 157.644 183.214 156.726 180.782 154.477C178.166 152.045 176.973 149.108 176.605 144.014L176.33 139.883H172.751H169.125V144.473Z" fill="#009CD8"/>
</svg>
