<svg width="226" height="228" viewBox="0 0 226 228" fill="none" xmlns="http://www.w3.org/2000/svg">
<path d="M110.299 0.16777C102.881 1.12344 96.6011 7.63106 95.7364 15.2309C95.4634 17.5518 95.3269 17.8703 94.4622 17.8703C92.8239 17.8703 82.8577 20.4643 77.8064 22.1936C71.1622 24.4689 60.3314 29.8844 54.2333 33.9801C38.6241 44.4014 26.337 58.4633 17.9636 75.4377C10.5003 90.5918 7.17824 105.018 7.17824 122.083C7.17824 138.329 10.3183 152.71 16.9169 166.772L19.2378 171.687L17.5085 173.371C16.5984 174.326 15.1876 176.42 14.3685 178.058C13.0943 180.743 12.9577 181.425 12.9577 185.339C13.0032 190.026 13.7769 192.484 16.2343 195.76C17.0989 196.853 17.281 197.399 16.8714 197.535C15.1421 198.127 9.2716 202.587 7.31476 204.816C1.58078 211.279 -1.83231 222.155 1.03468 224.84L2.08136 225.841H29.9777H57.8284L59.0116 224.658C60.0583 223.611 60.1493 223.293 59.8308 220.926C59.6487 219.515 59.0571 216.967 58.5111 215.329L57.5554 212.325L59.6032 213.599C63.2439 215.829 72.8915 220.289 77.7609 221.973C97.3292 228.708 118.945 229.664 138.832 224.658C147.615 222.473 159.538 217.65 166.092 213.599L168.139 212.325L167.184 215.329C166.638 216.967 166.046 219.515 165.864 220.926C165.545 223.293 165.636 223.611 166.683 224.658L167.866 225.841H195.808H223.75L224.706 224.794C227.436 221.882 224.068 211.233 218.38 204.816C216.423 202.587 210.553 198.127 208.823 197.535C208.414 197.399 208.596 196.853 209.46 195.76C211.918 192.484 212.692 190.026 212.737 185.339C212.737 181.425 212.6 180.743 211.326 178.058C210.507 176.42 209.096 174.326 208.186 173.371L206.457 171.687L208.869 166.544C213.283 157.17 216.651 145.156 218.016 134.143C218.744 127.908 218.653 114.847 217.743 108.203C216.241 96.6898 212.965 86.0865 207.731 75.4377C197.264 54.1855 180.836 37.7117 159.629 27.1994C152.212 23.5133 141.563 19.8271 134.6 18.5074L130.231 17.6428L129.913 15.1398C128.775 5.44669 120.083 -1.15195 110.299 0.16777ZM99.104 27.2449C100.424 29.0652 100.469 29.2928 99.7866 29.5658C97.6933 30.2939 92.5964 34.1166 90.321 36.665C85.4972 41.9895 81.6745 52.1377 83.0853 55.8693C83.8589 57.8717 84.4505 57.9172 112.847 57.9172C141.244 57.9172 141.836 57.8717 142.609 55.8693C144.02 52.1377 140.198 41.9895 135.374 36.665C133.098 34.1166 128.001 30.2939 125.908 29.5658C125.18 29.2928 125.225 29.0652 126.591 27.3359C127.41 26.2438 128.138 25.2881 128.184 25.1971C128.229 25.1061 130.732 25.5611 133.735 26.2438C159.629 31.9777 181.792 47.6324 195.99 70.1133C201.269 78.4867 206.138 90.1367 208.323 99.5568C210.143 107.384 210.78 113.3 210.78 122.083C210.78 137.192 207.868 150.48 201.633 163.723L199.449 168.319L196.673 168.137C191.348 167.773 185.159 170.64 182.019 174.918C178.879 179.287 177.878 185.84 179.562 190.937L180.335 193.257L178.106 195.305C172.099 200.766 162.587 207.046 154.578 210.823C141.244 217.104 128.092 220.016 112.847 220.016C97.6023 220.016 84.4505 217.104 71.1167 210.823C63.1073 207.046 53.5962 200.766 47.5892 195.305L45.3593 193.257L46.1329 190.937C47.7712 185.976 46.9066 179.787 43.903 175.282C40.9905 170.822 34.5284 167.728 29.022 168.137L26.246 168.319L24.0616 163.723C17.8271 150.48 14.8691 137.146 14.9146 122.083C14.9146 110.115 16.4163 101.013 20.1025 90.3188C31.1609 58.1447 58.056 34.0256 91.4587 26.3348C94.0982 25.6977 96.5556 25.1971 96.9196 25.1971C97.2837 25.1971 98.2849 26.1072 99.104 27.2449ZM116.989 34.7082C121.084 35.4818 125.817 38.0303 128.73 40.9883C131.096 43.4457 133.28 46.8133 134.008 49.1342L134.282 50.1809H112.847H91.4132L91.6862 49.1342C93.097 44.5379 97.8298 39.3045 102.881 36.8016C107.796 34.3896 111.983 33.7525 116.989 34.7082ZM36.4853 203.542C42.3103 205.317 47.3161 209.595 50.0466 215.101L51.4573 217.877L30.2052 218.014C18.5097 218.059 8.81652 218.014 8.7255 217.877C8.31593 217.468 10.4093 213.508 12.3206 211.005C15.0966 207.41 20.8761 203.77 25.0173 202.951C28.1118 202.405 33.7093 202.678 36.4853 203.542ZM201.133 203.133C204.637 203.952 208.823 206.318 211.599 209.049C214.011 211.506 217.606 217.286 217.015 217.832C216.878 218.014 207.185 218.059 195.49 218.014L174.237 217.877L175.648 215.056C179.471 207.456 187.071 202.678 195.444 202.678C197.446 202.632 199.995 202.86 201.133 203.133Z" fill="#009EDB"/>
<path d="M45.7687 64.0607C44.813 64.3793 43.3112 65.3349 42.4921 66.1541C41.6274 66.9732 37.3042 73.9359 32.8444 81.5812L24.7896 95.4611V99.1927C24.7896 102.56 24.9261 103.061 26.1548 104.881C29.4769 109.523 35.3929 110.57 40.2622 107.248L42.037 106.064L42.8562 107.157C44.4034 109.113 48.5446 118.124 51.8667 126.861C56.463 139.012 59.0114 144.291 60.5587 145.11C61.2868 145.474 62.1515 145.747 62.561 145.747C63.7897 145.747 66.0196 144.382 68.3405 142.243C69.5237 141.105 70.5249 140.423 70.5249 140.696C70.5249 141.606 74.9847 147.886 80.036 154.166C89.4106 165.771 90.6849 167.409 92.8237 170.549C95.0536 173.826 97.3745 178.149 97.3745 178.922C97.3745 179.195 96.3278 179.833 95.0991 180.379C87.2263 183.746 86.5892 194.668 93.9159 199.219L96.1458 200.584L114.85 200.721C135.51 200.857 136.193 200.812 139.242 198.218C143.246 194.759 144.248 189.571 141.745 184.975C140.47 182.609 137.194 179.878 135.647 179.878C133.69 179.833 133.735 179.195 136.056 174.463C140.516 165.407 140.334 166.271 140.607 148.296L140.834 132.368L143.11 131.048C146.295 129.137 154.805 124.768 154.987 124.95C155.078 125.041 154.623 126.406 153.941 127.999C151.984 132.914 152.758 137.192 156.444 141.287C158.355 143.426 161.768 145.747 162.951 145.747C163.406 145.747 164.316 145.52 164.954 145.201C166.546 144.473 169.413 138.466 174.283 125.724C177.832 116.395 181.063 109.478 182.838 107.157L183.657 106.064L185.432 107.248C190.301 110.57 196.217 109.523 199.54 104.881C200.768 103.061 200.905 102.56 200.905 99.1927V95.4611L192.804 81.4902C187.343 72.1156 184.112 66.9732 182.929 65.9265C181.063 64.2428 178.742 63.3781 176.058 63.3781C173.6 63.3781 169.732 65.5625 168.139 67.8379C166.91 69.6582 166.774 70.1588 166.774 73.3898V76.9394L164.772 77.2125C163.679 77.349 161.814 77.4855 160.63 77.4855C154.578 77.4855 151.665 78.7142 136.193 87.6338C129.367 91.5474 123.405 94.7785 122.904 94.7785C122.267 94.7785 121.767 94.2779 121.312 93.2767C120.174 90.5463 116.624 88.4074 113.302 88.4074C111.527 88.4529 108.615 89.9547 107.25 91.5474C106.567 92.3666 106.021 93.1857 106.021 93.4133C106.021 93.5953 104.838 93.8683 103.427 93.9594L100.833 94.1869L89.6837 87.7248C76.714 80.216 75.2577 79.4424 72.3907 78.5777C70.7979 78.0771 63.4712 77.258 59.1479 77.0304C59.0114 77.0304 58.9204 75.3922 58.9204 73.4353C58.9204 70.1588 58.7839 69.6582 57.5552 67.8379C54.9612 64.1517 50.0009 62.5135 45.7687 64.0607ZM56.8726 84.3117C57.7372 84.5392 60.9683 84.9488 63.9718 85.1763C67.0208 85.4039 70.2974 85.95 71.253 86.3596C73.5739 87.3152 96.1003 100.33 95.8272 100.558C95.7362 100.649 93.8249 99.6933 91.595 98.4646C89.3651 97.1904 87.0897 96.1437 86.4981 96.1437C85.2239 96.1437 82.812 98.4646 82.812 99.7388C82.812 101.969 83.9042 102.97 89.9567 106.474C93.2788 108.385 95.9183 110.024 95.7817 110.16C95.6907 110.251 93.7794 109.295 91.5495 108.021C86.9987 105.427 85.0874 105.109 83.4036 106.702C82.6755 107.384 82.3569 108.203 82.3569 109.386C82.3569 111.525 83.1306 112.162 90.4573 116.395C93.5063 118.124 96.0093 119.717 96.0093 119.899C96.0093 120.081 93.5519 118.807 90.5938 117.077C84.5413 113.528 82.994 113.209 81.2192 115.029C79.854 116.349 79.672 118.943 80.9007 120.126C81.3103 120.581 84.9054 122.766 88.819 125.041C92.7782 127.271 96.0093 129.319 96.0093 129.546C96.0093 129.728 95.5542 129.637 95.0081 129.273C94.4165 128.864 90.7759 126.77 86.9077 124.586C71.5261 115.803 66.3837 114.529 63.0161 118.534C61.9239 119.853 61.7874 120.263 61.9694 122.766C62.0604 124.586 62.6065 126.497 63.6077 128.636C65.2005 132.049 65.337 133.142 64.4269 134.825L63.7897 135.918L63.0161 134.143C62.6065 133.142 60.5587 127.863 58.4653 122.402C54.1421 111.207 50.8655 104.563 47.9985 101.286L46.0417 99.0562L50.4104 91.4564C52.8224 87.2697 54.9157 83.8566 55.0522 83.8566C55.1888 83.8566 56.0079 84.0387 56.8726 84.3117ZM175.284 91.4564L179.653 99.0562L177.696 101.286C174.829 104.563 171.552 111.207 167.229 122.402C165.136 127.863 163.088 133.142 162.678 134.143L161.905 135.918L161.267 134.825C160.357 133.142 160.494 132.049 162.087 128.636C163.088 126.497 163.634 124.586 163.725 122.766C163.907 120.263 163.77 119.853 162.678 118.534C159.902 115.211 155.898 115.667 146.432 120.445C143.201 122.083 140.607 123.221 140.607 122.993C140.607 122.811 141.199 122.402 141.972 122.083C145.658 120.581 146.796 117.305 144.43 114.938C143.428 113.937 142.973 113.801 141.29 113.983L139.333 114.21L141.199 112.8C142.791 111.616 143.155 111.025 143.246 109.614C143.383 108.294 143.155 107.612 142.382 106.793C140.834 105.154 138.787 105.336 135.009 107.521C133.28 108.522 131.733 109.295 131.642 109.159C131.46 108.977 132.78 108.158 139.97 104.062C141.836 102.97 142.882 101.423 142.882 99.7388C142.882 98.4646 140.47 96.1437 139.151 96.1437C138.559 96.1437 136.511 97.0539 134.509 98.1916C131.05 100.194 129.958 100.649 130.823 99.8299C131.596 99.1472 152.075 87.4062 154.168 86.4961C155.442 85.9045 158.036 85.4494 161.723 85.1763C164.772 84.9488 167.912 84.5392 168.64 84.3117C169.368 84.1297 170.187 83.9021 170.415 83.9021C170.688 83.8566 172.872 87.2697 175.284 91.4564ZM114.576 116.531L114.667 136.6L115.851 137.51C117.534 138.83 119.719 138.739 121.084 137.283L122.176 136.1L122.404 119.444C122.54 108.749 122.813 102.742 123.086 102.742C123.359 102.742 123.633 109.614 123.769 121.992L123.997 141.287L125.089 142.152C126.909 143.654 129.002 143.244 131.141 141.06C131.187 141.014 131.369 135.963 131.505 129.82C131.642 122.857 131.915 118.67 132.188 118.67C132.825 118.67 133.053 160.355 132.416 162.858C132.188 163.905 130.868 167.09 129.503 169.957C128.138 172.824 126.773 176.146 126.454 177.284L125.953 179.423H115.805H105.702L105.156 177.512C103.609 172.187 98.2392 164.041 88.8645 152.71C83.5856 146.339 80.0815 141.697 80.0815 141.151C80.0815 140.605 81.9019 140.65 83.6767 141.242C84.6323 141.606 85.7245 142.607 86.8622 144.336C90.7304 149.979 94.1435 152.255 97.42 151.254C102.699 149.661 103.7 144.2 103.746 117.851C103.746 103.744 103.837 101.605 104.428 101.605C105.02 101.605 105.111 103.653 105.111 117.168C105.111 128.727 105.293 133.051 105.702 133.915C106.931 136.373 109.98 136.782 111.937 134.825C112.802 133.961 112.847 133.233 112.847 115.348C112.847 105.109 112.984 96.5988 113.166 96.4168C114.303 95.2791 114.44 97.2814 114.576 116.531ZM85.0419 132.459C90.6394 135.645 95.3267 138.511 95.4177 138.83C95.5542 139.149 95.5087 140.013 95.2812 140.741L94.8716 142.107L92.5962 139.012C88.1364 133.005 81.9474 131.594 74.4386 134.825L72.5728 135.599L72.7093 133.278C72.8458 131.139 72.5272 129.82 70.7524 125.587C70.4339 124.859 70.6159 124.905 72.6183 125.724C73.847 126.27 79.4444 129.273 85.0419 132.459Z" fill="#009EDB"/>
</svg>
