<svg width="229" height="228" viewBox="0 0 229 228" fill="none" xmlns="http://www.w3.org/2000/svg">
<path d="M3.65205 0.759914C2.85038 1.16075 1.73695 2.09603 1.2025 2.85316L0.222686 4.23381L0.0890744 54.828L0 105.422L0.979818 106.892C1.5588 107.694 2.58316 108.807 3.25121 109.297C4.49826 110.232 4.89909 110.232 31.6659 110.366L58.7891 110.455V114.82C58.7891 129.25 64.3562 142.388 75.0006 153.033C85.6895 163.766 98.8725 169.244 114.015 169.244C121.898 169.244 128.534 167.908 135.616 164.968C137.575 164.122 139.223 163.454 139.268 163.454C139.357 163.454 139.401 169.645 139.401 177.261V191.067H117.355H95.3096V194.853V198.639H117.311H139.357L139.49 210.797L139.624 223L140.827 224.782C143.142 228.256 140.337 228.078 184.473 227.944L223.799 227.81L225.18 226.831C228.209 224.648 228.03 228.122 228.03 172.673V122.614L227.051 121.144C226.472 120.342 225.447 119.229 224.779 118.739C223.532 117.804 223.131 117.804 196.364 117.67L169.241 117.581V113.172C169.241 102.661 165.946 92.1057 159.844 82.9755C156.904 78.5664 149.511 71.1732 145.191 68.2783C129.381 57.723 109.784 55.7633 92.4146 63.0674C90.455 63.9136 88.8071 64.5817 88.7626 64.5817C88.6735 64.5817 88.629 58.3465 88.629 50.7752V36.9686H110.675H132.721V33.183V29.3973H110.719H88.6735L88.5399 17.2387L88.4063 5.03548L87.2038 3.254C84.9324 -0.219904 87.6492 0.00278189 44.0027 0.00278189C9.08558 0.00278189 4.98816 0.0918562 3.65205 0.759914ZM80.6123 18.4857V29.3973H62.3075H43.9582L48.9018 25.478C51.6186 23.3403 53.8454 21.4252 53.89 21.247C53.89 21.0689 52.8656 19.5991 51.6186 18.0403L49.3027 15.19L46.9422 17.0605C45.6506 18.0849 40.6624 22.0487 35.897 25.8343C31.1315 29.62 27.2122 32.8712 27.1677 33.0494C27.1677 33.2275 32.0668 37.3249 38.0793 42.1349C46.9422 49.2164 49.1245 50.7752 49.6144 50.3743C50.3715 49.7508 53.89 45.2526 53.89 44.8963C53.89 44.7626 51.7967 43.0257 49.2136 40.977C46.6304 38.9283 44.5372 37.1913 44.5372 37.1022C44.5372 37.0577 52.6429 36.9686 62.5747 36.9686H80.6123V53.3138V69.6144L76.2922 73.7118C68.1864 81.3277 63.0201 90.1015 60.1252 100.969L59.6353 102.884H33.6256H7.57132V55.2289V7.5741H44.0918H80.6123V18.4857ZM103.638 69.7925C99.4515 75.3597 95.7104 81.6394 93.8398 86.2713L93.0827 88.1864H83.7299H74.3326L75.1342 86.7612C75.5796 86.0041 77.6283 83.5991 79.677 81.4167C83.819 77.0076 89.9206 72.6875 95.1314 70.4606C98.0709 69.169 103.727 67.343 105.019 67.2985C105.33 67.2539 104.707 68.4119 103.638 69.7925ZM127.109 68.3673C134.28 70.4606 140.96 74.2908 146.483 79.5016C149.422 82.3075 153.653 87.2511 153.653 87.9192C153.653 88.0528 149.422 88.1864 144.3 88.1864H134.948L134.191 86.2713C132.32 81.6394 128.579 75.3597 124.392 69.7925C123.323 68.4119 122.611 67.2539 122.834 67.2539C123.101 67.2539 125.016 67.7438 127.109 68.3673ZM118.424 74.9143C120.607 77.9428 123.368 82.1293 124.481 84.2671L126.53 88.1864H114.015H101.5L103.549 84.2671C105.642 80.3478 113.303 69.4808 114.015 69.4808C114.238 69.4808 116.198 71.9303 118.424 74.9143ZM90.2323 96.7375C88.8071 101.993 88.4063 105.823 88.4063 114.018C88.4063 122.213 88.8071 126.043 90.2323 131.254L90.4995 132.278H80.256H69.9679L68.899 128.804C67.0285 122.925 66.6276 120.253 66.6276 114.018C66.6276 107.694 67.0285 104.843 68.8545 99.1871L70.0124 95.7577H80.256H90.4995L90.2323 96.7375ZM130.405 99.6324C132.008 106.135 132.543 113.172 131.875 119.273C131.607 122.124 130.939 126.221 130.449 128.359L129.514 132.278H114.06H98.5608L97.6255 128.359C96.0222 121.901 95.4877 114.864 96.1558 108.763C96.423 105.912 97.0911 101.815 97.581 99.6324L98.5162 95.7577H113.971H129.47L130.405 99.6324ZM159.131 99.1871C161.002 105.111 161.403 107.783 161.403 114.018C161.403 120.253 161.002 122.925 159.131 128.804L158.062 132.278H147.774H137.531L137.798 131.254C139.223 126.043 139.624 122.213 139.624 114.018C139.624 105.823 139.223 101.993 137.798 96.7375L137.531 95.7577H147.774H158.062L159.131 99.1871ZM220.459 172.807V220.462H183.939H147.418V209.55V198.639H165.723H184.072L179.129 202.513C176.412 204.696 174.274 206.7 174.363 206.967C174.808 208.303 178.817 212.801 179.262 212.49C183.671 209.105 200.685 195.343 200.774 195.076C200.863 194.853 196.008 190.756 189.996 185.901C181.133 178.82 178.906 177.261 178.416 177.662C177.659 178.285 174.14 182.783 174.14 183.14C174.14 183.273 176.234 185.01 178.817 187.059C181.4 189.108 183.493 190.845 183.493 190.934C183.493 190.978 175.387 191.067 165.456 191.067H147.418V174.678V158.332L151.026 154.992C158.909 147.822 164.788 138.469 167.237 129.116C167.638 127.557 168.083 125.998 168.172 125.687C168.306 125.286 173.918 125.152 194.405 125.152H220.459V172.807ZM93.5726 141.052C95.3096 145.639 99.4515 152.676 103.638 158.199C104.707 159.624 105.42 160.782 105.197 160.782C104.93 160.782 103.014 160.292 100.921 159.669C96.2448 158.332 91.034 155.794 86.6248 152.721C83.1509 150.36 76.5594 143.724 75.1342 141.275L74.3326 139.85H83.7299H93.0827L93.5726 141.052ZM124.481 143.724C122.388 147.688 114.728 158.555 114.015 158.555C113.303 158.555 105.642 147.688 103.549 143.724L101.5 139.85H114.015H126.53L124.481 143.724ZM153.653 140.117C153.653 140.785 149.422 145.728 146.483 148.534C142.786 152.053 139.802 154.146 135.081 156.506C131.875 158.11 126.753 159.98 123.858 160.559L122.344 160.871L124.348 158.288C128.579 152.676 132.32 146.441 134.191 141.72L134.948 139.85H144.3C149.422 139.85 153.653 139.983 153.653 140.117Z" fill="#008CDB"/>
<path d="M18.2598 62.5776V66.3633H25.8311H33.4024V62.5776V58.792H25.8311H18.2598V62.5776Z" fill="#008CDB"/>
<path d="M40.083 62.5776V66.3633H51.44H62.797V62.5776V58.792H51.44H40.083V62.5776Z" fill="#008CDB"/>
<path d="M18.2598 77.2749V81.0605H36.7427H55.2256V77.2749V73.4892H36.7427H18.2598V77.2749Z" fill="#008CDB"/>
<path d="M18.2598 91.9722V95.7578H33.1797H48.0997V91.9722V88.1865H33.1797H18.2598V91.9722Z" fill="#008CDB"/>
<path d="M172.804 136.064V139.85H180.376H187.947V136.064V132.278H180.376H172.804V136.064Z" fill="#008CDB"/>
<path d="M194.627 136.064V139.85H202.199H209.77V136.064V132.278H202.199H194.627V136.064Z" fill="#008CDB"/>
<path d="M172.804 150.761V154.547H191.287H209.77V150.761V146.976H191.287H172.804V150.761Z" fill="#008CDB"/>
<path d="M179.93 165.458V169.244H194.85H209.77V165.458V161.673H194.85H179.93V165.458Z" fill="#008CDB"/>
<path d="M162.561 22.2268C160.334 22.9394 158.686 24.0083 157.127 25.7452C152.095 31.3569 154.188 40.6206 161.18 43.5155C163.229 44.4063 167.683 44.4063 169.731 43.5155C178.283 39.9526 179.129 27.8385 171.068 23.4293C168.574 22.0932 164.654 21.5142 162.561 22.2268ZM167.905 30.7334C169.242 32.0695 169.108 34.43 167.638 35.5879C166.079 36.835 164.565 36.7459 163.229 35.4098C161.848 34.0737 161.804 32.2476 163.095 30.867C164.298 29.5754 166.658 29.4863 167.905 30.7334Z" fill="#008CDB"/>
<path d="M139.401 33.1831V36.9688H143.41H147.418V33.1831V29.3974H143.41H139.401V33.1831Z" fill="#008CDB"/>
<path d="M183.493 33.1831V36.9688H187.502H191.51V33.1831V29.3974H187.502H183.493V33.1831Z" fill="#008CDB"/>
<path d="M60.1695 183.986C55.5822 184.877 51.9301 188.885 51.3511 193.65C50.8612 198.015 53.2217 202.513 57.0964 204.696C60.1695 206.388 64.6678 206.522 67.5181 205.007C69.8341 203.76 72.3281 200.999 73.0853 198.817C75.9357 190.399 68.8988 182.293 60.1695 183.986ZM64.8014 192.626C66.9837 194.764 65.5585 198.193 62.4854 198.193C59.3678 198.193 57.9872 194.363 60.3922 192.448C61.951 191.201 63.4652 191.29 64.8014 192.626Z" fill="#008CDB"/>
<path d="M36.5205 194.853V198.639H40.5289H44.5372V194.853V191.067H40.5289H36.5205V194.853Z" fill="#008CDB"/>
<path d="M80.6123 194.853V198.639H84.6207H88.629V194.853V191.067H84.6207H80.6123V194.853Z" fill="#008CDB"/>
</svg>
